<?xml version="1.0" standalone="no"?>
<!DOCTYPE svg PUBLIC "-//W3C//DTD SVG 20010904//EN"
 "http://www.w3.org/TR/2001/REC-SVG-20010904/DTD/svg10.dtd">
<svg version="1.0" xmlns="http://www.w3.org/2000/svg"
 width="264.000000pt" height="264.000000pt" viewBox="0 0 264.000000 264.000000"
 preserveAspectRatio="xMidYMid meet">
<metadata>
Created by potrace 1.14, written by Peter Selinger 2001-2017
</metadata>
<g transform="translate(0.000000,264.000000) scale(0.100000,-0.100000)"
fill="#000000" stroke="none">
<path d="M1182 2129 c-135 -24 -267 -84 -383 -175 -50 -40 -121 -115 -143
-152 -5 -8 38 -58 126 -146 73 -74 178 -179 233 -235 l100 -101 -234 -234
-234 -234 21 -28 c29 -42 140 -145 195 -183 132 -90 278 -133 452 -133 149 -1
223 15 365 80 103 46 300 217 300 260 0 9 -104 119 -231 245 l-231 230 231
231 c127 127 231 237 231 243 0 21 -131 153 -193 195 -74 50 -165 93 -253 119
-80 23 -269 33 -352 18z m277 -279 c40 -12 87 -28 104 -36 l30 -16 -134 -134
c-74 -74 -136 -134 -140 -134 -7 0 -269 257 -269 264 0 11 82 47 138 60 84 21
186 19 271 -4z m-2 -872 c146 -146 143 -138 53 -170 -122 -44 -237 -47 -361
-8 -122 37 -123 30 31 184 73 74 136 133 140 131 3 -3 64 -64 137 -137z"/>
<path d="M597 1707 c-65 -110 -103 -287 -94 -432 8 -114 29 -198 78 -305 l40
-84 99 99 99 100 -25 85 c-22 72 -25 99 -21 175 3 54 13 114 25 150 l21 60
-98 98 -98 99 -26 -45z"/>
<path d="M1920 1655 c-53 -53 -94 -104 -93 -113 1 -9 9 -44 19 -77 26 -88 24
-212 -5 -304 l-23 -74 99 -99 98 -99 37 78 c58 120 80 218 80 353 1 152 -33
291 -95 393 l-23 38 -94 -96z"/>
</g>
</svg>
