<svg width="18" height="13" viewBox="0 0 18 13" fill="none" xmlns="http://www.w3.org/2000/svg"><path d="M1.094 7.551.029 11.433c-.136.496.222.99.717.99h6.22c.496 0 .853-.494.717-.99L6.62 7.551a.75.75 0 0 0-.717-.563H1.81a.75.75 0 0 0-.716.563Zm9.687 0-1.064 3.882c-.136.496.221.99.716.99h6.221c.495 0 .853-.494.717-.99l-1.065-3.882a.75.75 0 0 0-.716-.563h-4.092a.75.75 0 0 0-.717.563ZM5.937.563 4.873 4.445c-.136.496.221.99.716.99h6.222c.495 0 .852-.494.716-.99L11.463.563A.75.75 0 0 0 10.746 0H6.654a.75.75 0 0 0-.717.563Z" fill="#fff"/></svg>