<svg width="152" height="28" viewBox="0 0 152 28" fill="none" xmlns="http://www.w3.org/2000/svg"><path d="M30.588 8.269c-5.506 0-9.808 4.18-9.808 9.775 0 5.595 4.194 9.738 9.808 9.738s9.88-4.215 9.88-9.774c0-5.524-4.193-9.739-9.88-9.739Zm.037 15.481c-3.135 0-5.433-2.435-5.433-5.705 0-3.307 2.26-5.741 5.396-5.741 3.173 0 5.469 2.47 5.469 5.741 0 3.27-2.296 5.705-5.432 5.705Zm11.046-11.229h2.735v14.9h4.375V8.632h-7.11v3.89Zm-31.9-.218c2.297 0 4.12 1.417 4.812 3.524h4.63c-.839-4.505-4.557-7.558-9.405-7.558C4.302 8.269 0 12.449 0 18.045s4.193 9.739 9.808 9.739c4.739 0 8.53-3.053 9.37-7.596h-4.595c-.656 2.108-2.48 3.562-4.777 3.562-3.172 0-5.395-2.435-5.395-5.705.001-3.307 2.188-5.742 5.36-5.742Zm115.025 3.925-3.208-.472c-1.532-.218-2.625-.727-2.625-1.926 0-1.309 1.422-1.962 3.354-1.962 2.114 0 3.464.908 3.755 2.398h4.229c-.474-3.78-3.391-5.996-7.874-5.996-4.631 0-7.693 2.363-7.693 5.706 0 3.197 2.005 5.051 6.051 5.632l3.209.472c1.568.217 2.443.836 2.443 1.999 0 1.49-1.531 2.107-3.646 2.107-2.589 0-4.047-1.054-4.266-2.652h-4.302c.402 3.67 3.281 6.25 8.531 6.25 4.777 0 7.948-2.18 7.948-5.924 0-3.343-2.296-5.088-5.906-5.632ZM46.593.892c-1.604 0-2.808 1.163-2.808 2.761 0 1.599 1.203 2.761 2.808 2.761 1.604 0 2.808-1.162 2.808-2.76 0-1.6-1.204-2.762-2.808-2.762Zm64.203 14.173c0-4.07-2.479-6.795-7.729-6.795-4.958 0-7.728 2.508-8.276 6.36h4.339c.219-1.49 1.385-2.725 3.864-2.725 2.225 0 3.319.98 3.319 2.18 0 1.563-2.006 1.962-4.485 2.217-3.354.363-7.51 1.526-7.51 5.887 0 3.38 2.516 5.559 6.526 5.559 3.135 0 5.104-1.308 6.089-3.38.146 1.853 1.531 3.053 3.464 3.053h2.552v-3.888h-2.151v-8.468h-.002Zm-4.302 4.724c0 2.508-2.187 4.361-4.849 4.361-1.641 0-3.027-.69-3.027-2.143 0-1.853 2.225-2.362 4.266-2.58 1.969-.181 3.063-.617 3.61-1.454v1.816ZM83.27 8.27c-2.443 0-4.484 1.018-5.943 2.725V.711h-4.374v26.71h4.301V24.95c1.459 1.78 3.537 2.834 6.016 2.834 5.25 0 9.225-4.143 9.225-9.739 0-5.597-4.048-9.776-9.225-9.776Zm-.656 15.481c-3.135 0-5.433-2.435-5.433-5.705s2.334-5.741 5.47-5.741c3.172 0 5.395 2.435 5.395 5.741 0 3.27-2.296 5.705-5.432 5.705ZM62.49 8.27c-2.844 0-4.704 1.162-5.798 2.798V8.632h-4.339V27.42h4.375V17.21c0-2.872 1.823-4.906 4.52-4.906 2.517 0 4.084 1.78 4.084 4.36v10.758h4.375V16.338c.001-4.726-2.44-8.069-7.217-8.069Zm89.068 9.158c0-5.377-3.938-9.157-9.225-9.157-5.614 0-9.734 4.216-9.734 9.775 0 5.851 4.412 9.739 9.807 9.739 4.558 0 8.131-2.69 9.042-6.505h-4.558c-.657 1.672-2.261 2.617-4.412 2.617-2.808 0-4.923-1.745-5.396-4.797h14.474v-1.672h.002Zm-14.22-1.454c.693-2.617 2.662-3.888 4.922-3.888 2.479 0 4.375 1.417 4.813 3.888h-9.735Z" fill="#fff"/></svg>