<svg width="21" height="21" viewBox="0 0 21 21" fill="none" xmlns="http://www.w3.org/2000/svg"><path d="M2.1 11.388c0-.58.47-1.05 1.05-1.05h2.1c.58 0 1.05.47 1.05 1.05v4.2h2.1v-4.2c0-.58.47-1.05 1.05-1.05h2.1c.58 0 1.05.47 1.05 1.05v4.2h2.1v-4.2c0-.58.47-1.05 1.05-1.05h2.1c.58 0 1.05.47 1.05 1.05v4.2c1.16 0 2.1.94 2.1 2.1v1.05a2.1 2.1 0 0 1-2.1 2.1H2.1a2.1 2.1 0 0 1-2.1-2.1v-1.05c0-1.16.94-2.1 2.1-2.1v-4.2ZM0 5.46a2.1 2.1 0 0 1 1.32-1.95L9.72.15c.5-.2 1.06-.2 1.56 0l8.4 3.36A2.1 2.1 0 0 1 21 5.46v.678a2.1 2.1 0 0 1-2.1 2.1H2.1a2.1 2.1 0 0 1-2.1-2.1V5.46Z" fill="#fff"/></svg>