<svg width="136" height="35" viewBox="0 0 136 35" fill="none" xmlns="http://www.w3.org/2000/svg"><path d="M16.99 29.899c-1.983 1.413-3.168 3.168-2.622 3.942.547.775 2.599.252 4.58-1.163 1.984-1.41 3.169-3.166 2.621-3.94-.16-.253-.478-.342-.912-.342-.017-.002-.037-.002-.055-.002-.911 0-2.273.545-3.613 1.505ZM6.05 26.89C2.2 28.485-.466 30.855.08 32.2c.547 1.344 4.125 1.139 7.976-.433 3.851-1.595 6.518-3.965 5.97-5.31-.25-.592-1.093-.888-2.301-.888h-.108c-1.494 0-3.497.454-5.566 1.32Zm17.64-1.595c-.685 1.3-.89 2.53-.48 2.734.41.23 1.3-.661 1.982-1.958.684-1.3.89-2.531.48-2.736-.046-.022-.093-.022-.137-.022l-.018-.001c-.459-.001-1.22.835-1.828 1.983Zm-5.562-3.6c-1.32.752-2.005 2.027-1.549 2.849.479.82 1.915.842 3.236.09 1.323-.75 2.006-2.028 1.55-2.848-.25-.434-.752-.638-1.367-.638-.57 0-1.23.181-1.87.546Zm4.877-1.733c-.387.661-.365 1.39.069 1.642.41.25 1.07-.114 1.435-.775.388-.662.365-1.39-.067-1.641a.633.633 0 0 0-.298-.07c-.364 0-.819.343-1.139.844Zm-4.9-2.848c0 .797.73 1.436 1.618 1.436.889 0 1.641-.638 1.641-1.436 0-.798-.729-1.436-1.64-1.436-.89 0-1.619.661-1.619 1.436Zm-10.869 0c0 1.777 2.005 3.213 4.489 3.213 2.462.022 4.467-1.413 4.467-3.213 0-1.778-2.005-3.214-4.49-3.214-2.46 0-4.466 1.436-4.466 3.214ZM23.12 12.58c-.41.25-.433.98-.07 1.64.388.661 1.026 1.003 1.437.775.41-.251.433-.98.068-1.64-.296-.524-.752-.844-1.139-.844a.305.305 0 0 0-.061-.005.524.524 0 0 0-.235.074Zm-6.473-2.94c-.478.82.229 2.097 1.55 2.85 1.322.75 2.758.728 3.236-.092.48-.82-.228-2.096-1.55-2.848-.638-.365-1.298-.548-1.868-.548-.616 0-1.14.205-1.367.638Zm6.563-3.487c-.41.228-.205 1.436.48 2.735.682 1.299 1.572 2.164 1.982 1.96.41-.23.205-1.437-.479-2.735-.615-1.163-1.39-1.983-1.845-1.983-.046 0-.092 0-.138.023ZM.08 1.983c-.547 1.344 2.119 3.714 5.97 5.31 3.852 1.595 7.407 1.778 7.976.433.548-1.345-2.119-3.715-5.97-5.31-2.142-.866-4.17-1.322-5.674-1.322-1.208 0-2.051.296-2.302.889ZM14.345.342c-.547.775.639 2.53 2.622 3.943 1.982 1.413 4.033 1.937 4.58 1.162.547-.775-.639-2.53-2.62-3.943C17.557.547 16.168 0 15.256 0c-.433 0-.752.115-.912.342ZM31.38 6.155h7.515c4.129 0 6.982 2.25 6.982 5.846 0 1.972-.927 3.55-2.667 4.384 2.551.835 3.966 2.715 3.966 5.382 0 3.92-3.016 6.31-7.772 6.31h-8.072l.048-21.922Zm7.26 9.071c2.088 0 3.55-1.044 3.55-2.923 0-1.88-1.462-2.923-3.55-2.923h-3.549v5.846h3.549Zm.673 9.58c2.458 0 4.06-1.136 4.06-3.293 0-2.041-1.67-3.225-4.13-3.225h-4.175v6.518h4.245Zm18.14.326c.627 0 1.253-.094 1.717-.465v3.225c-.627.371-1.508.58-2.807.58-3.132 0-5.01-1.88-5.01-5.104v-7.562H48.59v-.51l6.31-6.518h.093v3.966h4.129v3.085h-4.06v6.89c0 1.67.72 2.413 2.39 2.413ZM69.447 12.35c1.554 0 2.923.37 4.175 1.09v3.595c-1.253-.881-2.505-1.345-3.851-1.345-2.76 0-4.849 2.087-4.849 4.755 0 2.668 2.042 4.756 4.849 4.756 1.508 0 2.806-.626 3.92-1.346v3.596a8.647 8.647 0 0 1-4.269 1.09c-4.848 0-8.188-3.387-8.188-8.027-.022-4.732 3.364-8.164 8.213-8.164Zm4.175-6.195H89.79V9.66h-6.147v18.418h-3.85V9.66h-6.149V6.155h-.022Zm27.025 6.566h3.713v15.334h-3.713v-2.041c-.996 1.461-2.551 2.389-4.755 2.389-3.711 0-5.939-2.458-5.939-6.473v-9.233h3.712v8.56c0 2.39 1.206 3.806 3.386 3.806 2.181 0 3.596-1.671 3.596-4.27v-8.072ZM117.86 16.2c-.162-.093-.464-.093-.928-.093-2.714 0-4.337 2.09-4.337 5.22v6.774h-3.642V12.72h3.595v2.598c.789-1.763 2.599-2.923 4.639-2.923.417 0 .627.046.673.093V16.2Zm6.102 11.855h-3.643v-21.9h3.643v21.9Zm6.24-15.334h4.547l-5.846 7.237 6.472 8.074h-4.546l-6.473-8.074 5.846-7.237Z" fill="#fff"/></svg>