<svg width="125" height="26" viewBox="0 0 125 26" fill="none" xmlns="http://www.w3.org/2000/svg"><path d="M24.941 7.688h-2.84l-5 17.556h5.54l4.225-14.822a2.107 2.107 0 0 0-.258-1.932 1.982 1.982 0 0 0-1.667-.802Zm3.873-3.935a3.984 3.984 0 0 1-3.568 2.78 2.01 2.01 0 0 1-2.112-1.932 1.75 1.75 0 0 1 .14-.848 3.984 3.984 0 0 1 3.569-2.78c.68-.048 1.338.282 1.76.848.188.283.329.613.352.942.024.33-.023.66-.14.99Zm22.653 2.993a8.646 8.646 0 0 0-3.192.612c-.493.213-.94.495-1.385.802l1.267-4.478c.212-.636.141-1.366-.258-1.908a2.032 2.032 0 0 0-.728-.613 1.82 1.82 0 0 0-.939-.188H43.51l-6.901 24.27h5.399l2.653-9.33a6.822 6.822 0 0 1 1.76-3.23c.657-.682 1.573-1.083 2.512-1.06a1.77 1.77 0 0 1 1.784 1.06 5.067 5.067 0 0 1-.094 3.23l-2.629 9.307h5.47l2.605-9.12a9.52 9.52 0 0 0-.07-6.739 4.7 4.7 0 0 0-4.53-2.615Zm49.226-.047a12.632 12.632 0 0 0-7.207 2.097 4.648 4.648 0 0 0-4.225-2.074 8.645 8.645 0 0 0-3.193.613c-.587.26-1.15.613-1.666 1.013a1.906 1.906 0 0 0-2.02-1.626h-2.699L74.425 25.22h5.4l2.675-9.355a6.822 6.822 0 0 1 1.76-3.228 3.62 3.62 0 0 1 1.151-.801 2.99 2.99 0 0 1 1.361-.26c.376-.047.752.048 1.057.236.305.189.563.495.704.825a5.067 5.067 0 0 1-.094 3.228l-2.652 9.355h5.47l2.675-9.355a6.933 6.933 0 0 1 1.76-3.228c.658-.684 1.574-1.084 2.513-1.06a1.751 1.751 0 0 1 1.784 1.06 5.069 5.069 0 0 1-.094 3.228l-2.676 9.355h5.469l2.606-9.166a9.521 9.521 0 0 0-.071-6.74 4.642 4.642 0 0 0-4.53-2.615ZM57.617 17.255 60.622 6.7h5.47l-3.005 10.556c-.892 3.11 2.019 3.11 2.019 3.11 1.854-.023 3.45-1.295 3.92-3.11L72.03 6.7h5.399l-3.005 10.556c-1.338 4.808-5.751 8.083-10.704 7.965 0 0-8.521.566-6.104-7.965Zm66.268-1.178a9.521 9.521 0 0 0-.07-6.74 4.632 4.632 0 0 0-4.507-2.591 7.792 7.792 0 0 0-3.193.612 6.822 6.822 0 0 0-1.385.802l1.268-4.454c.211-.636.141-1.343-.258-1.909a1.926 1.926 0 0 0-.751-.612 1.822 1.822 0 0 0-.939-.189h-2.7l-4.577 16.118c-2.512 8.813 6.361 8.153 6.361 8.153s8.099.142 10.751-9.19Zm-5.422-.188a7.648 7.648 0 0 1-1.808 3.416 3.267 3.267 0 0 1-1.15.802 2.987 2.987 0 0 1-1.361.259 1.768 1.768 0 0 1-1.831-1.084c-.306-1.131-.212-2.333.211-3.417a6.82 6.82 0 0 1 1.76-3.228c.658-.684 1.573-1.084 2.512-1.06a1.77 1.77 0 0 1 1.784 1.06c.305 1.084.282 2.215-.117 3.252ZM36.89 3.682c.117-.306.14-.66.093-.99a2.3 2.3 0 0 0-.352-.942 1.926 1.926 0 0 0-1.62-.801h-2.816l-5.822 20.5c-.798 2.828.587 3.535 1.902 3.653.939.07 2.042.118 3.122.118.704 0 1.385-.023 1.948-.047l.563-.024 1.245-4.383H32.71c-.657 0-.587-.235-.54-.47l2.512-8.86h.68a3.607 3.607 0 0 0 2.114-.755c.657-.471 1.126-1.178 1.361-1.956l.422-1.46h-3.38l1.01-3.583ZM17.782 16.077a9.52 9.52 0 0 0-.07-6.74c-.846-1.696-2.63-2.733-4.508-2.591a7.787 7.787 0 0 0-3.193.612 6.824 6.824 0 0 0-1.384.802l1.267-4.454c.211-.636.141-1.343-.258-1.909a2.031 2.031 0 0 0-.728-.612A1.82 1.82 0 0 0 7.97.996H5.246L.67 17.114c-2.512 8.813 6.361 8.153 6.361 8.153s8.075.142 10.752-9.19Zm-5.423-.188a7.649 7.649 0 0 1-1.807 3.416c-.658.684-1.573 1.084-2.512 1.06-.775.095-1.526-.353-1.855-1.083-.305-1.131-.211-2.333.212-3.417a6.822 6.822 0 0 1 1.76-3.228c.657-.684 1.573-1.084 2.512-1.06a1.77 1.77 0 0 1 1.784 1.06c.329 1.084.305 2.215-.094 3.252Z" fill="#fff"/></svg>