<svg width="18" height="15" viewBox="0 0 18 15" fill="none" xmlns="http://www.w3.org/2000/svg"><g clip-path="url(#a)"><path d="M17.965.319a.386.386 0 0 0-.262-.285 1.344 1.344 0 0 0-.71.05S1.223 5.752.323 6.38c-.194.136-.259.213-.29.306a.529.529 0 0 0 .33.644l4.065 1.328c.068.012.14.008.206-.012.924-.584 9.3-5.874 9.783-6.052.077-.023.134 0 .12.056-.193.678-7.47 7.147-7.47 7.147a.39.39 0 0 0-.045.075h-.01l-.381 4.017s-.159 1.235 1.077 0a34.54 34.54 0 0 1 2.135-1.95c1.399.966 2.899 2.032 3.55 2.59a1.133 1.133 0 0 0 .824.318c.616-.023.79-.7.79-.7S17.874 2.58 17.975 1.03c.01-.15.022-.249.024-.353a1.315 1.315 0 0 0-.035-.362" fill="#3B444F"/></g><defs><clipPath id="a"><path fill="#fff" d="M0 0h18v14.848H0z"/></clipPath></defs></svg>