<svg width="136" height="32" viewBox="0 0 136 32" fill="none" xmlns="http://www.w3.org/2000/svg"><path fill-rule="evenodd" clip-rule="evenodd" d="M112.01 9.632h3.825v-3.82h-3.825v3.82Zm-20.33 6.366a5.127 5.127 0 0 1 4.794-3.314 5.12 5.12 0 0 1 4.794 3.314h-9.589Zm4.794-6.871c-4.795 0-8.684 3.885-8.684 8.674 0 4.79 3.89 8.675 8.684 8.675a8.68 8.68 0 0 0 7.623-4.52l-3.206-1.556a5.127 5.127 0 0 1-9.373-1.286h9.912v.005h3.631c.065-.43.097-.871.097-1.318 0-4.79-3.884-8.674-8.684-8.674Zm9.697 16.886h3.825v-3.82h-3.825v3.82Zm5.839 0h3.825V11.31h-3.825v14.702Zm14.497-3.089a5.123 5.123 0 1 1 0-10.246 5.124 5.124 0 0 1 5.129 5.123 5.124 5.124 0 0 1-5.129 5.123Zm0-13.797c-4.794 0-8.684 3.885-8.684 8.674 0 4.79 3.89 8.675 8.684 8.675 4.795 0 8.684-3.886 8.684-8.675 0-4.79-3.889-8.674-8.684-8.674Zm-79.966 5.478v3.95h5.349a6.362 6.362 0 0 1-1.621 2.948c-1.197 1.222-2.85 1.89-4.66 1.89a6.826 6.826 0 0 1-6.82-6.819c0-3.756 3.06-6.818 6.82-6.818a6.76 6.76 0 0 1 5.15 2.346l3.06-2.502a10.843 10.843 0 0 0-8.21-3.799c-5.942 0-10.775 4.832-10.775 10.768 0 5.935 4.833 10.768 10.775 10.768 2.887 0 5.543-1.039 7.488-3.025 1.632-1.668 2.715-3.992 2.92-6.317a23.11 23.11 0 0 0 .048-3.401l-9.524.01Zm19.48 8.319a5.128 5.128 0 0 1-5.13-5.123 5.124 5.124 0 0 1 5.13-5.123 5.124 5.124 0 0 1 5.128 5.123 5.124 5.124 0 0 1-5.129 5.123Zm5.128-12.108a8.639 8.639 0 0 0-5.129-1.673c-4.794 0-8.678 3.885-8.678 8.674 0 4.79 3.89 8.675 8.678 8.675a8.68 8.68 0 0 0 5.129-1.674v1.2h3.555V9.616H71.15v1.2Zm11.184-5.004h-3.556v3.82H76.65v3.353h2.128v8.771c0 .904.113 1.668.34 2.266.22.592.565 1.055.97 1.415.409.366.888.651 1.46.818.58.161 1.217.226 1.895.226.7 0 1.326-.07 1.854-.215a6.57 6.57 0 0 0 1.406-.56v-2.701c-.7.301-1.358.414-2.107.446-.792.038-1.255-.188-1.643-.56-.41-.387-.625-.893-.625-1.737v-8.17h4.375V9.633h-4.375v-3.82h.006ZM15.93 24.35c-4.68 0-8.478-3.794-8.478-8.47s3.797-8.47 8.479-8.47V.474C7.414.474.513 7.372.513 15.88c0 8.508 6.9 15.4 15.418 15.4 8.512 0 15.418-6.898 15.418-15.4H24.41c0 4.682-3.798 8.47-8.48 8.47Z" fill="#fff"/><path fill-rule="evenodd" clip-rule="evenodd" d="M15.93 15.878h8.48v-8.47h-8.48v8.47Z" fill="#B8B8B8" fill-opacity=".49"/></svg>