<?xml version="1.0" encoding="utf-8"?><svg width="3388" height="1610" viewBox="0 0 3388 1610" xmlns="http://www.w3.org/2000/svg" xmlns:xlink="http://www.w3.org/1999/xlink"><view id="image-arrow-right" viewBox="1982 579 8 12"/><svg width="8" height="12" fill="none" viewBox="-1 -1 8 12" x="1982" y="579" xmlns="http://www.w3.org/2000/svg"><path d="m1 9 3.2-4L1 1" stroke="#fff" stroke-width="2" stroke-linecap="round" stroke-linejoin="round"/></svg><view id="image-check" viewBox="1938 579 24 24"/><svg width="24" height="24" fill="none" viewBox="-1 -1 24 24" x="1938" y="579" xmlns="http://www.w3.org/2000/svg"><circle cx="11" cy="11" r="11" fill="#10A64A"/><path d="M6.945 12.537c-1.067-1.11.573-2.768 1.756-1.719.418.37.875.764 1.297 1.13l3.249-3.87c1.13-1.133 2.916.532 1.8 1.672l-4.083 4.72a1.285 1.285 0 0 1-1.737.075c-.698-.631-1.557-1.41-2.282-2.006v-.002Z" fill="#fff"/></svg><view id="image-circle-lines" viewBox="0 992 1669 618"/><svg width="1669" height="618" fill="none" viewBox="-1 -1 1669 618" y="992" xmlns="http://www.w3.org/2000/svg"><path d="M833.5 230.967c69.739 0 126.274-20.848 126.274-46.565 0-25.718-56.535-46.566-126.274-46.566s-126.274 20.848-126.274 46.566c0 25.717 56.535 46.565 126.274 46.565Z" stroke="url(#ca)" stroke-opacity=".04" stroke-miterlimit="10"/><path d="M833.5 265.858c105.202 0 190.49-31.451 190.49-70.247 0-38.797-85.288-70.248-190.49-70.248-105.202 0-190.486 31.451-190.486 70.248 0 38.796 85.284 70.247 190.486 70.247Z" stroke="url(#cb)" stroke-opacity=".04" stroke-miterlimit="10"/><path d="M833.5 300.782c140.666 0 254.7-42.053 254.7-93.929 0-51.876-114.034-93.929-254.7-93.929-140.665 0-254.697 42.053-254.697 93.929 0 51.876 114.032 93.929 254.697 93.929Z" stroke="url(#cc)" stroke-opacity=".04" stroke-miterlimit="10"/><path d="M833.5 335.673c176.11 0 318.88-52.641 318.88-117.578 0-64.936-142.77-117.578-318.88-117.578-176.11 0-318.875 52.642-318.875 117.578 0 64.937 142.765 117.578 318.875 117.578Z" stroke="url(#cd)" stroke-opacity=".04" stroke-miterlimit="10"/><path d="M833.5 370.597c211.57 0 383.09-63.244 383.09-141.26 0-78.015-171.52-141.26-383.09-141.26-211.573 0-383.086 63.245-383.086 141.26 0 78.016 171.513 141.26 383.086 141.26Z" stroke="url(#ce)" stroke-opacity=".04" stroke-miterlimit="10"/><path d="M833.5 405.521c247.04 0 447.3-73.846 447.3-164.941S1080.54 75.638 833.5 75.638c-247.036 0-447.298 73.847-447.298 164.942 0 91.095 200.262 164.941 447.298 164.941Z" stroke="url(#cf)" stroke-opacity=".04" stroke-miterlimit="10"/><path d="M833.5 440.446c282.5 0 511.51-84.45 511.51-188.624 0-104.174-229.01-188.624-511.51-188.624-282.499 0-511.51 84.45-511.51 188.624 0 104.174 229.011 188.624 511.51 188.624Z" stroke="url(#cg)" stroke-opacity=".04" stroke-miterlimit="10"/><path d="M833.5 475.337c317.94 0 575.69-95.038 575.69-212.273S1151.44 50.792 833.5 50.792c-317.943 0-575.687 95.037-575.687 212.272 0 117.235 257.744 212.273 575.687 212.273Z" stroke="url(#ch)" stroke-opacity=".04" stroke-miterlimit="10"/><path d="M833.5 510.227c353.41 0 639.9-105.64 639.9-235.954 0-130.314-286.49-235.954-639.9-235.954-353.406 0-639.899 105.64-639.899 235.954 0 130.314 286.493 235.954 639.899 235.954Z" stroke="url(#ci)" stroke-opacity=".04" stroke-miterlimit="10"/><path d="M833.5 545.152c388.87 0 704.11-116.243 704.11-259.637 0-143.393-315.24-259.636-704.11-259.636S129.389 142.122 129.389 285.515c0 143.394 315.241 259.637 704.111 259.637Z" stroke="url(#cj)" stroke-opacity=".04" stroke-miterlimit="10"/><path d="M833.5 580.076c424.31 0 768.29-126.846 768.29-283.318 0-156.473-343.98-283.318-768.29-283.318-424.314 0-768.288 126.845-768.288 283.318 0 156.472 343.974 283.318 768.288 283.318Z" stroke="url(#ck)" stroke-opacity=".04" stroke-miterlimit="10"/><path d="M833.5 615c459.78 0 832.5-137.449 832.5-307S1293.28 1 833.5 1C373.723 1 1 138.449 1 308s372.723 307 832.5 307Z" stroke="url(#cl)" stroke-opacity=".04" stroke-miterlimit="10"/><defs><linearGradient id="ca" x1="842" y1="9.324" x2="839.172" y2="542.066" gradientUnits="userSpaceOnUse"><stop stop-color="#121B25"/><stop offset=".5" stop-color="#fff"/><stop offset="1" stop-color="#161A1F"/></linearGradient><linearGradient id="cb" x1="842" y1="9.324" x2="839.172" y2="542.066" gradientUnits="userSpaceOnUse"><stop stop-color="#121B25"/><stop offset=".5" stop-color="#fff"/><stop offset="1" stop-color="#161A1F"/></linearGradient><linearGradient id="cc" x1="842" y1="9.324" x2="839.172" y2="542.066" gradientUnits="userSpaceOnUse"><stop stop-color="#121B25"/><stop offset=".5" stop-color="#fff"/><stop offset="1" stop-color="#161A1F"/></linearGradient><linearGradient id="cd" x1="842" y1="9.324" x2="839.172" y2="542.066" gradientUnits="userSpaceOnUse"><stop stop-color="#121B25"/><stop offset=".5" stop-color="#fff"/><stop offset="1" stop-color="#161A1F"/></linearGradient><linearGradient id="ce" x1="842" y1="9.324" x2="839.172" y2="542.066" gradientUnits="userSpaceOnUse"><stop stop-color="#121B25"/><stop offset=".5" stop-color="#fff"/><stop offset="1" stop-color="#161A1F"/></linearGradient><linearGradient id="cf" x1="842" y1="9.324" x2="839.172" y2="542.066" gradientUnits="userSpaceOnUse"><stop stop-color="#121B25"/><stop offset=".5" stop-color="#fff"/><stop offset="1" stop-color="#161A1F"/></linearGradient><linearGradient id="cg" x1="842" y1="9.324" x2="839.172" y2="542.066" gradientUnits="userSpaceOnUse"><stop stop-color="#121B25"/><stop offset=".5" stop-color="#fff"/><stop offset="1" stop-color="#161A1F"/></linearGradient><linearGradient id="ch" x1="842" y1="9.324" x2="839.172" y2="542.066" gradientUnits="userSpaceOnUse"><stop stop-color="#121B25"/><stop offset=".5" stop-color="#fff"/><stop offset="1" stop-color="#161A1F"/></linearGradient><linearGradient id="ci" x1="842" y1="9.324" x2="839.172" y2="542.066" gradientUnits="userSpaceOnUse"><stop stop-color="#121B25"/><stop offset=".5" stop-color="#fff"/><stop offset="1" stop-color="#161A1F"/></linearGradient><linearGradient id="cj" x1="842" y1="9.324" x2="839.172" y2="542.066" gradientUnits="userSpaceOnUse"><stop stop-color="#121B25"/><stop offset=".5" stop-color="#fff"/><stop offset="1" stop-color="#161A1F"/></linearGradient><linearGradient id="ck" x1="842" y1="9.324" x2="839.172" y2="542.066" gradientUnits="userSpaceOnUse"><stop stop-color="#121B25"/><stop offset=".5" stop-color="#fff"/><stop offset="1" stop-color="#161A1F"/></linearGradient><linearGradient id="cl" x1="842" y1="9.324" x2="839.172" y2="542.066" gradientUnits="userSpaceOnUse"><stop stop-color="#121B25"/><stop offset=".5" stop-color="#fff"/><stop offset="1" stop-color="#161A1F"/></linearGradient></defs></svg><view id="image-close" viewBox="1962 579 20 20"/><svg width="20" height="20" fill="none" viewBox="-1 -1 20 20" x="1962" y="579" xmlns="http://www.w3.org/2000/svg"><path d="m2.071 1.657 14.142 14.142m-14.142 0L16.213 1.657" stroke="#fff" stroke-width="3" stroke-linecap="round"/></svg><view id="image-gr-triangle" viewBox="0 0 1874 992"/><svg width="1874" height="992" fill="none" viewBox="-1 -1 1874 992" xmlns="http://www.w3.org/2000/svg"><path d="M0 975.501 930.5 0 1872 989.497 0 975.501Z" fill="url(#ea)" fill-opacity=".07"/><defs><linearGradient id="ea" x1="925" y1="464.996" x2="927.5" y2="-.004" gradientUnits="userSpaceOnUse"><stop stop-opacity="0"/><stop offset="1" stop-color="#fff"/></linearGradient></defs></svg><view id="image-locked-icon" viewBox="1874 579 32 32"/><svg width="32" height="32" fill="none" viewBox="-1 -1 32 32" x="1874" y="579" xmlns="http://www.w3.org/2000/svg"><path fill-rule="evenodd" clip-rule="evenodd" d="M9.074 15.152a2.92 2.92 0 0 1 2.747-2.718 50.362 50.362 0 0 1 6.358 0 2.92 2.92 0 0 1 2.747 2.719c.043.596.074 1.237.074 1.847 0 .61-.031 1.251-.074 1.848a2.92 2.92 0 0 1-2.747 2.718 50.362 50.362 0 0 1-6.358 0 2.92 2.92 0 0 1-2.747-2.718A26.133 26.133 0 0 1 9 17c0-.61.031-1.251.074-1.848Z" fill="#fff"/><path fill-rule="evenodd" clip-rule="evenodd" d="M11.667 10.333a3.333 3.333 0 0 1 6.666 0V13A.667.667 0 1 1 17 13v-2.667a2 2 0 0 0-4 0V13a.667.667 0 0 1-1.333 0v-2.667Z" fill="#fff"/></svg><view id="image-vol-icon" viewBox="1906 579 32 32"/><svg width="32" height="32" fill="none" viewBox="-1 -1 32 32" x="1906" y="579" xmlns="http://www.w3.org/2000/svg"><path d="m7.094 16.551-1.065 3.882c-.136.496.222.99.717.99h6.22c.496 0 .853-.494.717-.99l-1.064-3.882a.75.75 0 0 0-.717-.563H7.81a.75.75 0 0 0-.716.563ZM16.781 16.551l-1.064 3.882c-.136.496.221.99.716.99h6.221c.495 0 .853-.494.717-.99l-1.065-3.882a.75.75 0 0 0-.716-.563h-4.092a.75.75 0 0 0-.717.563ZM11.937 9.563l-1.064 3.882c-.136.496.221.99.716.99h6.222c.495 0 .852-.494.716-.99l-1.064-3.882A.75.75 0 0 0 16.746 9h-4.092a.75.75 0 0 0-.717.563Z" fill="#fff"/></svg><view id="image-white-decor" viewBox="1874 0 1514 579"/><svg width="1514" height="579" fill="none" viewBox="-1 -1 1514 579" x="1874" xmlns="http://www.w3.org/2000/svg"><path d="M1512 413.874v3.514c-141.65-93.27-197.76-109.244-220.32-88.998-14.61 13.114-15.52 41.742-16.57 74.431-1.14 35.559-2.44 75.868-21.71 107.023-38.87 62.839-150.2 87.941-478.491-39.65C491.321 359.981 210.933 358.55 0 385.2v-2.766c211.432-26.65 492.325-25.121 776.43 85.295 325.78 126.614 435.81 102.437 473.86 40.911 18.94-30.615 20.22-70.606 21.35-105.883 1.07-33.226 2-62.322 17.45-76.187 23.71-21.283 80.74-5.904 222.91 87.302m0-15.229v3.514c-143.48-94.293-200.44-109.637-224.07-88.428-15.03 13.489-16.95 42.055-19.13 74.53-2.31 34.451-4.92 73.25-23.83 103.817-39.9 64.51-151.72 91.811-484.101-37.368C478.037 344.786 204.528 341.128 0 365.588v-2.757c205.033-24.46 479.053-20.706 762.39 89.413 329.86 128.198 440.38 101.828 479.47 38.627 18.59-30.057 21.18-68.564 23.48-102.751 2.21-32.986 4.17-62 20-76.21 24.77-22.24 82.66-7.493 226.66 86.733Zm0-15.231v3.517c-145.35-95.334-203.18-110.024-227.91-87.824-15.43 13.848-18.34 42.325-21.64 74.563-3.41 33.305-7.22 70.58-25.73 100.509-40.97 66.234-153.25 95.879-489.889-34.956C464.804 329.612 198.145 323.732 0 345.999v-2.757c198.656-22.266 465.826-16.288 748.352 93.515 334.108 129.847 445.098 101.144 485.258 36.215 18.2-29.441 21.99-66.452 25.37-99.517 3.35-32.72 6.31-61.622 22.51-76.167 25.88-23.23 84.63-9.145 230.51 86.127v-.003Zm0-15.231v3.517c-147.25-96.399-205.98-110.4-231.85-87.177-15.82 14.203-19.72 42.56-24.11 74.53-4.42 32.128-9.32 67.863-27.39 97.084-42.07 68.014-154.78 100.157-495.856-32.402C451.622 314.458 191.785 306.361 0 326.434v-2.759c192.299-20.069 452.654-11.873 734.315 97.592 338.535 131.568 449.955 100.377 491.215 33.66 17.8-28.777 22.68-64.266 27.06-96.169 4.45-32.43 8.41-61.195 24.97-76.057 27.01-24.248 86.64-10.865 234.44 85.478v.002Zm0-15.228v3.516c-149.21-97.494-208.84-110.766-235.89-86.486-16.2 14.54-21.07 42.751-26.53 74.426-5.33 30.906-11.22 65.079-28.82 93.527-43.21 69.858-156.29 104.673-502.01-29.69C438.495 299.323 185.45 289.015 0 306.888v-2.749c185.97-17.871 439.538-7.467 720.274 101.64 343.166 133.369 454.966 99.515 497.376 30.951 17.35-28.043 23.2-61.988 28.5-92.687 5.53-32.112 10.46-60.711 27.36-75.88 28.19-25.301 88.73-12.647 238.49 84.79Zm0-15.229v3.514c-151.22-98.616-211.77-111.119-240.04-85.748-16.56 14.862-22.37 42.898-28.88 74.252-6.15 29.635-12.9 62.206-29.98 89.818-44.39 71.766-157.79 109.451-508.384-26.804C425.431 284.214 179.145 271.699 0 287.369v-2.743c179.668-15.667 426.487-3.058 706.237 105.666 348.023 135.257 460.153 98.546 503.753 28.065 16.84-27.238 23.56-59.606 29.67-89.056 6.59-31.766 12.49-60.172 29.71-75.631 29.4-26.389 90.86-14.502 242.63 84.054Zm0-15.229v3.514c-153.28-99.771-214.77-111.459-244.29-84.959-16.9 15.164-23.65 42.999-31.17 74.007-6.86 28.31-14.37 59.242-30.88 85.94-45.61 73.746-159.26 114.523-514.978-23.726C412.44 269.134 172.87 254.421 0 267.885v-2.74c173.396-13.462 413.502 1.347 692.2 109.659 353.14 137.245 465.53 97.453 510.35 24.987 16.3-26.348 23.76-57.103 30.59-85.249 7.61-31.395 14.44-59.575 31.97-75.311 30.66-27.514 93.06-16.44 246.89 83.264Zm0-15.228v3.511c-155.4-100.957-217.84-111.782-248.66-84.118-17.21 15.447-24.87 43.054-33.38 73.691-7.47 26.919-15.59 56.161-31.49 81.858-46.88 75.803-160.69 119.93-521.832-20.426C399.522 254.083 166.628 237.179 0 248.433v-2.728c167.164-11.254 400.592 5.736 678.159 113.612 358.541 139.344 471.111 96.218 517.211 21.686 15.68-25.361 23.76-54.459 31.19-81.246 8.61-30.992 16.36-58.92 34.18-74.916 31.95-28.676 95.31-18.465 251.26 82.426Zm0-15.231v3.509c-157.57-102.18-220.98-112.092-253.15-83.219-17.52 15.717-26.07 43.061-35.52 73.29-7.96 25.472-16.56 52.978-31.76 77.553-48.21 77.943-162.07 125.719-528.969-16.876C386.661 239.051 160.426 219.994 0 229.043v-2.718c160.971-9.049 387.743 10.091 664.122 117.504 364.278 141.576 476.908 94.814 524.338 18.134 15.03-24.294 23.58-51.662 31.51-77.003 9.56-30.57 18.2-58.221 36.28-74.451 33.29-29.882 97.63-20.579 255.75 81.527Zm0-15.231v3.507c-159.82-103.439-224.21-112.385-257.77-82.258-17.79 15.964-27.2 43.015-37.56 72.816-8.32 23.932-17.25 49.624-31.69 72.969-49.59 80.175-163.37 131.952-536.417-13.031C373.887 224.057 154.269 202.855 0 209.696v-2.711c154.82-6.839 374.985 14.442 650.084 121.359 370.406 143.959 482.976 93.213 531.786 14.292 14.29-23.101 23.18-48.673 31.46-72.495 10.47-30.117 19.98-57.456 38.3-73.902 34.68-31.128 100-22.794 260.37 80.57v-.004Zm0-15.231v3.507c-162.12-104.738-227.52-112.656-262.53-81.233-18.04 16.19-28.27 42.918-39.5 72.253-8.53 22.298-17.64 46.091-31.22 68.06-51.04 82.515-164.55 138.717-544.227-8.84C361.22 209.102 148.158 185.771 0 190.395v-2.704c148.717-4.626 362.333 18.786 636.044 125.163 377.006 146.524 489.326 91.367 539.596 10.099 13.46-21.77 22.53-45.456 31.02-67.65 11.35-29.635 21.68-56.636 40.22-73.274 36.12-32.423 102.44-25.112 265.12 79.545Zm0-15.231v3.504c-164.5-106.078-230.92-112.907-267.43-80.136-18.24 16.379-29.26 42.754-41.32 71.603-8.57 20.519-17.66 42.282-30.32 62.75-52.56 84.969-165.58 146.126-552.448-4.228C348.664 194.189 142.098 168.742 0 171.151v-2.697c142.666-2.409 349.795 23.118 622.007 128.913 384.183 149.311 496.023 89.224 547.813 5.489 12.52-20.236 21.58-41.942 30.13-62.405 12.17-29.118 23.29-55.742 42.03-72.56 37.61-33.765 104.96-27.542 270.02 78.452Zm0-15.236v3.504c-166.95-107.461-234.41-113.132-272.47-78.964-18.45 16.556-30.22 42.541-43.04 70.86-47.97 105.929-110.58 244.178-590.042 57.836C336.239 179.33 136.098 151.78 0 151.967v-2.689c136.679-.187 337.388 27.442 607.966 132.601 475.994 184.992 537.854 48.378 585.264-56.297 12.94-28.578 24.82-54.802 43.7-71.754 39.17-35.158 107.56-30.096 275.07 77.279Zm0-15.234v3.51c-169.48-108.885-238-113.336-277.68-77.716-18.6 16.693-31.08 42.258-44.62 70.021-51.62 105.785-118.66 243.188-597.292 57.17C323.958 164.526 130.165 134.888 0 132.851v-2.673c130.761 2.037 325.128 31.747 593.929 136.216 475.241 184.7 541.511 48.877 592.541-55.696 13.66-28 26.24-53.783 45.25-70.85 40.79-36.606 110.23-32.78 280.28 76.028v-.003Zm0-15.231v3.51c-172.09-110.362-241.7-113.511-283.07-76.381-18.71 16.797-31.84 41.904-46.05 69.079-55.25 105.644-126.69 242.222-604.513 56.518C311.793 149.764 124.311 118.099 0 113.84v-2.649c124.918 4.252 312.981 35.98 579.891 139.713 474.509 184.417 545.149 49.358 599.779-55.108 14.33-27.387 27.56-52.691 46.67-69.842 42.46-38.113 112.99-35.596 285.66 74.688Zm0-15.228v3.507c-174.8-111.893-245.51-113.65-288.63-74.945-18.79 16.864-32.52 41.474-47.34 68.017-58.88 105.503-134.66 241.287-611.7 55.886C299.793 135.07 118.538 101.406 0 94.927v-2.63c119.164 6.47 301.015 40.192 565.851 143.12 473.799 184.141 548.759 49.83 606.999-54.529 14.93-26.739 28.76-51.53 47.92-68.729 44.21-39.683 115.84-38.56 291.23 73.255Zm0-15.229v3.507c-177.62-113.487-249.44-113.75-294.4-73.403-18.83 16.902-33.1 40.968-48.45 66.84-62.49 105.361-142.58 240.371-618.855 55.267C288.006 120.455 112.865 84.821 0 76.119v-2.613c113.512 8.692 289.264 44.382 551.813 146.421 473.117 183.875 552.357 50.288 614.207-53.965 15.45-26.057 29.83-50.298 48.99-67.497 46.04-41.324 118.78-41.688 296.99 71.715v.005Zm0-15.231v3.502c-180.55-115.15-253.51-113.81-300.37-71.744-18.8 16.875-33.56 40.369-49.38 65.536-66.1 105.219-150.46 239.475-625.995 54.658C276.451 105.934 107.301 68.353 0 57.424v-2.577C107.978 65.76 277.76 103.386 537.776 204.44c472.444 183.614 555.934 50.73 621.364-53.418 15.91-25.321 30.76-48.956 49.89-66.129 47.95-43.034 121.83-45.005 302.97 70.06v.002Zm0-15.231v3.502c-183.61-116.89-257.71-113.82-306.58-69.956-18.74 16.818-33.9 39.676-50.09 64.086-69.72 105.08-158.293 238.602-633.115 54.063C265.087 91.484 101.857 52.045 0 38.902v-2.526c102.571 13.112 266.433 52.577 523.736 152.576 471.795 183.362 559.494 51.161 628.524-52.882 16.28-24.548 31.54-47.544 50.56-64.623 49.94-44.828 124.98-48.526 309.18 68.274v.002Zm0-15.231v3.497C1325.2 9.274 1249.93 14.217 1198.96 59.97c-18.61 16.703-34.1 38.88-50.59 62.477-73.3 104.942-166.072 237.75-640.193 53.486C253.989 77.143 96.557 35.893 0 20.543V18.08c97.318 15.305 255.422 56.561 509.698 155.383 471.164 183.115 563.042 51.581 635.652-52.354 16.57-23.726 32.15-46.026 51.01-62.962C1248.4 11.438 1324.6 5.87 1512 124.49v.002Zm0-15.236v3.495C1321.84-7.879 1245.4-.906 1192.21 46.831c-18.4 16.519-34.13 37.958-50.8 60.692-76.9 104.805-173.83 236.922-647.27 52.923C243.242 62.933 91.419 19.924 0 2.364V0c92.247 17.487 244.775 60.473 495.661 157.979 470.54 182.876 566.569 51.99 642.739-51.834 16.76-22.847 32.57-44.394 51.22-61.13 54.25-48.692 131.62-56.288 322.38 64.244v-.003ZM0 402.061c217.852-28.836 505.643-29.539 790.468 81.156 321.852 125.089 431.352 102.978 468.412 43.073 19.25-31.124 19.12-72.591 19.01-108.928-.1-33.434-.19-62.583 14.86-76.093 22.68-20.356 78.87-4.377 219.25 87.834v3.516c-139.87-92.27-195.14-108.844-216.66-89.528-14.18 12.726-14.09 41.393-13.99 74.273.11 36.632.24 78.435-19.37 110.134-37.86 61.224-148.68 84.248-473.04-41.815C504.642 375.19 217.353 375.991 0 404.83v-2.769Z" fill="#EDEDED"/></svg></svg>