<svg width="129" height="31" viewBox="0 0 129 31" fill="none" xmlns="http://www.w3.org/2000/svg"><path d="M101.251 15.714c0-.755 0-1.464-.025-2.119a12.803 12.803 0 0 0-.183-1.843 6.176 6.176 0 0 0-.517-1.606 5.195 5.195 0 0 0-1.02-1.413 6.521 6.521 0 0 0-2.072-1.428c-.84-.34-1.74-.51-2.647-.496a6.89 6.89 0 0 0-2.658.496 6.47 6.47 0 0 0-2.085 1.421c-.416.41-.76.888-1.015 1.414a6.15 6.15 0 0 0-.509 1.605c-.103.61-.162 1.226-.176 1.843a70.314 70.314 0 0 0-.02 2.119c.003.754 0 1.458.02 2.117.014.618.073 1.234.176 1.843a6.15 6.15 0 0 0 .509 1.606 5.23 5.23 0 0 0 1.015 1.413 6.396 6.396 0 0 0 2.085 1.418 6.838 6.838 0 0 0 2.658.5 6.744 6.744 0 0 0 2.647-.5 6.448 6.448 0 0 0 2.073-1.418c.416-.411.76-.889 1.019-1.413a6.19 6.19 0 0 0 .517-1.606c.104-.608.165-1.222.181-1.838.02-.659.029-1.364.024-2.117l.003.002Zm-3.418 0c0 .835-.012 1.53-.04 2.084-.017.455-.062.908-.136 1.356-.051.3-.142.59-.272.864a2.47 2.47 0 0 1-.406.606c-.255.292-.57.523-.925.678-.4.171-.829.258-1.263.256a3.216 3.216 0 0 1-1.27-.256 2.633 2.633 0 0 1-.949-.678 2.385 2.385 0 0 1-.407-.606 3.253 3.253 0 0 1-.257-.864 11.315 11.315 0 0 1-.136-1.356 48.647 48.647 0 0 1-.037-2.084c0-.836.013-1.533.037-2.086.018-.455.063-.908.136-1.357.045-.298.132-.589.257-.863a2.41 2.41 0 0 1 .407-.607c.263-.293.587-.525.95-.678.4-.172.833-.259 1.27-.255.433-.004.863.083 1.262.255.354.156.67.387.925.678.164.181.301.386.406.607.13.274.22.565.272.864.074.448.12.901.135 1.356.03.552.041 1.249.041 2.086Zm30.65-8.452a.301.301 0 0 0-.299-.3h-2.82a.302.302 0 0 0-.3.3v10.415l-6.876-10.63c-.046-.073-.086-.085-.188-.085h-2.615a.304.304 0 0 0-.3.3v16.9a.304.304 0 0 0 .3.3h2.818a.3.3 0 0 0 .299-.3V13.72l6.877 10.656c.047.072.085.084.188.084h2.614a.301.301 0 0 0 .3-.299l.002-16.9Zm-18.9 0a.3.3 0 0 0-.299-.3h-2.817a.301.301 0 0 0-.3.3v16.9a.301.301 0 0 0 .3.3h2.817a.3.3 0 0 0 .299-.3v-16.9Zm-33.721 8.451c0-.84.01-1.54.034-2.097a10.8 10.8 0 0 1 .136-1.357c.26-1.505 1.413-2.393 2.885-2.393.96.008 1.83.363 2.387 1.171.251.378.435.796.542 1.237a.09.09 0 0 0 .098.075h3.316c.047 0 .065-.033.057-.079-.362-2.052-1.457-3.895-3.39-4.808a6.97 6.97 0 0 0-3.036-.644c-1.867 0-3.44.64-4.718 1.918a5.063 5.063 0 0 0-1.43 2.625c-.195.984-.294 2.434-.295 4.351-.002 1.917.096 3.367.295 4.35.2 1 .697 1.917 1.426 2.63 1.277 1.278 2.85 1.917 4.718 1.917a6.988 6.988 0 0 0 3.035-.643c1.934-.913 3.028-2.756 3.39-4.808.009-.047-.009-.078-.056-.078h-3.318a.09.09 0 0 0-.097.074 3.88 3.88 0 0 1-.543 1.236c-.556.813-1.427 1.165-2.387 1.171-1.471 0-2.624-.887-2.884-2.392a10.8 10.8 0 0 1-.136-1.356 63.893 63.893 0 0 1-.029-2.1ZM40.84 7.262a.301.301 0 0 0-.3-.3h-2.817a.301.301 0 0 0-.3.3v16.9a.301.301 0 0 0 .3.3h2.817a.301.301 0 0 0 .3-.3v-4.96l2.26-2.703 4.644 7.873c.036.058.1.092.169.09h3.423c.157 0 .185-.099.107-.233l-6.08-10.307L50.94 7.23c.112-.135.065-.264-.111-.264h-3.742a.136.136 0 0 0-.117.054l-6.131 7.354V7.262Zm20.522 14.299c-1.585 0-3.023-1.467-3.023-3.22V7.262a.301.301 0 0 0-.3-.299h-2.817a.301.301 0 0 0-.3.3V18.3c0 3.858 2.887 6.31 6.44 6.31 3.553 0 6.44-2.452 6.44-6.31V7.261a.302.302 0 0 0-.3-.3h-2.819a.301.301 0 0 0-.298.3v11.08c0 1.75-1.439 3.22-3.023 3.22Z" fill="#fff"/><path fill-rule="evenodd" clip-rule="evenodd" d="m9.109 15.713 8.745 8.747 5.52-5.52a2.497 2.497 0 0 1 3.525 3.526l-7.284 7.286a2.514 2.514 0 0 1-3.526 0L5.58 19.24v6.248a2.497 2.497 0 0 1-4.993 0V5.93a2.497 2.497 0 0 1 4.994 0v6.248L16.088 1.67a2.513 2.513 0 0 1 3.526 0l7.29 7.284a2.497 2.497 0 0 1-3.527 3.526l-5.52-5.52-8.748 8.753Zm8.749-2.499a2.5 2.5 0 1 0-.003 5.002 2.5 2.5 0 0 0 .003-5.003v.001Z" fill="#fff"/></svg>