<svg width="20" height="20" viewBox="0 0 20 20" fill="none" xmlns="http://www.w3.org/2000/svg"><path d="M9.999 0C4.477 0 0 4.59 0 10.253c0 4.53 2.865 8.372 6.84 9.73.5.094.683-.223.683-.495 0-.244-.01-.888-.014-1.744-2.782.62-3.369-1.375-3.369-1.375-.454-1.184-1.11-1.5-1.11-1.5-.909-.635.068-.622.068-.622 1.003.072 1.53 1.057 1.53 1.057.893 1.566 2.342 1.114 2.912.851.09-.663.349-1.114.635-1.371-2.22-.26-4.555-1.139-4.555-5.067 0-1.12.39-2.035 1.03-2.752-.104-.26-.446-1.302.097-2.713 0 0 .84-.275 2.75 1.05a9.355 9.355 0 0 1 2.504-.344 9.376 9.376 0 0 1 2.504.346c1.909-1.326 2.747-1.05 2.747-1.05.545 1.411.203 2.453.1 2.712.642.718 1.028 1.633 1.028 2.753 0 3.938-2.337 4.805-4.565 5.059.359.316.679.942.679 1.898 0 1.37-.013 2.476-.013 2.812 0 .275.18.594.688.493C17.137 18.623 20 14.78 20 10.253 20 4.591 15.523 0 9.999 0Z" fill="#3B444F"/></svg>