<svg width="141" height="23" viewBox="0 0 141 23" fill="none" xmlns="http://www.w3.org/2000/svg"><path d="M31.221.894h3.403v8.981L43.7.895h4.538l-8.13 7.846 8.508 13.235h-4.538l-6.617-10.683-2.931 2.836v7.941h-3.403L31.22.894Zm19.286 0h3.403v3.687c.284-.662.946-1.607 1.985-2.552 1.04-1.04 2.27-1.513 3.687-1.513h.379c.189 0 .472 0 .85.094v3.782c-.189 0-.378-.095-.567-.095h-.567c-1.796 0-3.12.568-4.065 1.702-.946 1.135-1.418 2.458-1.418 3.97V22.07H50.6L50.507.894Zm23.445 8.319c.85-.094 1.323-.472 1.607-1.04.19-.283.19-.756.19-1.323 0-1.23-.474-2.08-1.324-2.647-.851-.567-2.08-.851-3.687-.851-1.891 0-3.12.473-3.97 1.513-.474.567-.757 1.418-.852 2.458h-3.308c.094-2.647.945-4.444 2.552-5.389C66.862.894 68.658.421 70.832.421c2.458 0 4.444.473 6.05 1.418 1.513.946 2.27 2.458 2.27 4.444v12.1c0 .379.094.662.189.851.189.19.472.378.945.378h.567c.19 0 .378-.094.662-.094v2.647c-.567.189-.945.284-1.229.284-.284 0-.662.094-1.135.094-1.228 0-2.08-.473-2.647-1.323-.283-.473-.472-1.135-.567-1.986-.756.946-1.796 1.796-3.12 2.458a9.92 9.92 0 0 1-4.443 1.04c-1.985 0-3.592-.567-4.821-1.796-1.23-1.229-1.89-2.647-1.89-4.443 0-1.986.566-3.498 1.795-4.538 1.23-1.04 2.837-1.702 4.822-1.985l5.672-.757Zm-7.468 9.549c.756.567 1.607.85 2.647.85a8.026 8.026 0 0 0 3.592-.85c1.985-.946 2.93-2.553 2.93-4.727v-2.836c-.472.283-.945.472-1.701.661a18.08 18.08 0 0 1-1.985.379l-2.08.472c-1.324.19-2.269.473-2.93.851-1.135.662-1.608 1.607-1.608 2.93 0 .946.378 1.702 1.135 2.27ZM83.878.894h3.404v8.981l9.075-8.98h4.538l-8.13 7.846 8.508 13.235h-4.538l-6.617-10.683-2.93 2.836v7.941h-3.404L83.878.894Zm31.859.662c1.418.662 2.458 1.607 3.215 2.741.661 1.04 1.134 2.27 1.418 3.687.189.946.283 2.553.283 4.633h-15.315c.095 2.174.568 3.876 1.513 5.2.945 1.323 2.363 1.985 4.349 1.985 1.796 0 3.308-.568 4.348-1.797.568-.756 1.04-1.512 1.324-2.458h3.498c-.095.757-.378 1.607-.946 2.553-.472.945-1.134 1.701-1.701 2.363a7.35 7.35 0 0 1-3.971 2.08c-.851.19-1.796.284-2.836.284-2.647 0-4.821-.946-6.618-2.836-1.796-1.891-2.741-4.538-2.741-7.941 0-3.404.945-6.145 2.741-8.225 1.797-2.08 4.255-3.215 7.185-3.215 1.418-.189 2.836.19 4.254.946Zm1.324 8.225c-.189-1.513-.473-2.742-1.04-3.687-.945-1.702-2.552-2.553-4.821-2.553-1.608 0-2.931.567-4.065 1.796-1.135 1.135-1.702 2.647-1.702 4.444h11.628Zm6.712-8.887h3.403V3.92c1.04-1.229 2.08-2.08 3.215-2.647a8.126 8.126 0 0 1 3.687-.85c3.025 0 5.01 1.04 6.05 3.12.567 1.134.851 2.74.851 4.915v13.519h-3.593V8.74c0-1.324-.189-2.364-.567-3.12-.662-1.324-1.796-1.985-3.403-1.985-.851 0-1.513.094-2.08.283-.945.284-1.796.851-2.552 1.702a5.348 5.348 0 0 0-1.135 2.174c-.189.757-.284 1.796-.284 3.215v11.06h-3.497L123.773.894ZM13.92.894C6.548.894.498 6.85.498 14.318v5.767c0 1.04.85 1.89 1.89 1.89s1.891-.85 1.891-1.89v-5.767c0-1.04.85-1.89 1.89-1.89s1.892.85 1.892 1.89v5.767c0 1.04.85 1.89 1.89 1.89s1.891-.85 1.891-1.89v-5.767c0-1.04.85-1.89 1.89-1.89s1.892.85 1.892 1.89v5.767c0 1.04.85 1.89 1.89 1.89s1.891-.85 1.891-1.89v-5.767c0-1.04.85-1.89 1.89-1.89s1.892.85 1.892 1.89v5.767c0 1.04.85 1.89 1.89 1.89s1.891-.85 1.891-1.89v-5.767C27.44 6.85 21.389.894 13.921.894Z" fill="#fff"/></svg>